<svg aria-hidden="true" style="position:absolute;width:0;height:0;overflow:hidden" xmlns="http://www.w3.org/2000/svg">
  <defs>
    <symbol id="icon-OrderService" viewBox="0 0 91 32">
      <path d="M16.214 22.327c0-.577-.09-1.09-.269-1.538-.167-.449-.468-.859-.904-1.231s-1.051-.731-1.846-1.077c-.782-.359-1.782-.724-3-1.096a33.21 33.21 0 0 1-3.692-1.365c-1.115-.513-2.09-1.103-2.923-1.769-.833-.679-1.481-1.455-1.942-2.327-.462-.885-.692-1.904-.692-3.058 0-1.141.237-2.179.712-3.115a7.258 7.258 0 0 1 2.058-2.423c.897-.692 1.955-1.224 3.173-1.596 1.218-.385 2.564-.577 4.038-.577 2.077 0 3.865.385 5.365 1.154 1.513.769 2.673 1.801 3.481 3.096a7.854 7.854 0 0 1 1.231 4.288h-4.788c0-.923-.199-1.737-.596-2.442-.385-.718-.974-1.282-1.769-1.692-.782-.41-1.776-.615-2.981-.615-1.141 0-2.09.173-2.846.519s-1.321.814-1.692 1.404a3.67 3.67 0 0 0-.558 2c0 .526.122 1.006.365 1.442.244.423.615.82 1.115 1.192.5.359 1.128.699 1.885 1.019s1.647.628 2.673.923c1.551.462 2.904.974 4.058 1.538 1.154.551 2.115 1.179 2.885 1.885s1.346 1.506 1.731 2.404c.385.885.577 1.891.577 3.019 0 1.179-.237 2.244-.712 3.192a6.893 6.893 0 0 1-2.038 2.404c-.872.654-1.923 1.16-3.154 1.519-1.218.346-2.577.519-4.077.519-1.346 0-2.673-.179-3.981-.538a11.732 11.732 0 0 1-3.538-1.635 8.434 8.434 0 0 1-2.538-2.769c-.628-1.115-.942-2.417-.942-3.904H4.91c0 .91.154 1.686.462 2.327a4.294 4.294 0 0 0 1.327 1.577 5.964 5.964 0 0 0 1.962.885 9.818 9.818 0 0 0 2.423.288c1.128 0 2.07-.16 2.827-.481.769-.32 1.346-.769 1.731-1.346s.577-1.244.577-2zm19.402 7.596c-1.538 0-2.929-.25-4.173-.75-1.231-.513-2.282-1.224-3.154-2.135-.859-.91-1.519-1.981-1.981-3.212s-.692-2.558-.692-3.981v-.769c0-1.628.237-3.103.711-4.423s1.135-2.449 1.981-3.385c.846-.949 1.846-1.673 3-2.173s2.404-.75 3.75-.75c1.487 0 2.788.25 3.904.75s2.039 1.205 2.769 2.115c.744.897 1.295 1.968 1.654 3.212.372 1.244.558 2.615.558 4.115v1.981H27.866v-3.327h11.5v-.365a6.51 6.51 0 0 0-.5-2.346c-.295-.731-.75-1.321-1.365-1.769s-1.436-.673-2.462-.673c-.769 0-1.455.167-2.058.5-.59.321-1.084.788-1.481 1.404s-.705 1.359-.923 2.231c-.205.859-.308 1.827-.308 2.904v.769c0 .91.122 1.756.365 2.538.256.769.628 1.442 1.116 2.019s1.077 1.032 1.769 1.366c.692.32 1.481.481 2.365.481 1.116 0 2.109-.224 2.981-.673s1.628-1.083 2.269-1.904l2.442 2.365c-.449.654-1.032 1.282-1.75 1.885-.718.59-1.596 1.07-2.635 1.442-1.026.372-2.218.558-3.577.558zm18.114-16.75v16.365h-4.635V8.73h4.365l.269 4.442zm-.827 5.192-1.5-.019c.013-1.474.218-2.827.615-4.058.41-1.231.974-2.288 1.692-3.173a7.457 7.457 0 0 1 2.615-2.038c1.013-.487 2.141-.731 3.385-.731 1 0 1.904.141 2.712.423.82.269 1.519.712 2.096 1.327.59.615 1.039 1.417 1.346 2.404.308.974.462 2.173.462 3.596v13.442h-4.654V16.076c0-1-.147-1.788-.442-2.365-.282-.59-.699-1.006-1.25-1.25-.539-.256-1.212-.385-2.019-.385-.795 0-1.506.167-2.135.5s-1.16.788-1.596 1.365c-.423.577-.75 1.244-.981 2s-.346 1.564-.346 2.423zm32.422 6.866V0h4.654v29.538h-4.211l-.442-4.308zm-13.539-5.866v-.404c0-1.577.186-3.013.558-4.308.372-1.308.91-2.429 1.615-3.365a7.091 7.091 0 0 1 2.577-2.173c1.013-.513 2.154-.769 3.423-.769 1.257 0 2.359.244 3.308.731s1.756 1.186 2.423 2.096c.667.897 1.199 1.974 1.596 3.231.398 1.244.679 2.628.846 4.154v1.288c-.167 1.487-.448 2.846-.846 4.077s-.929 2.295-1.596 3.192a6.907 6.907 0 0 1-2.442 2.077c-.949.487-2.058.731-3.327.731-1.256 0-2.391-.263-3.404-.788-1-.526-1.853-1.263-2.558-2.211s-1.244-2.064-1.615-3.346c-.372-1.295-.558-2.699-.558-4.212zm4.635-.403v.404c0 .949.083 1.833.25 2.654.179.821.455 1.545.827 2.173a4.276 4.276 0 0 0 1.442 1.462c.603.346 1.32.519 2.154.519 1.051 0 1.917-.231 2.596-.692s1.211-1.083 1.596-1.865a8.651 8.651 0 0 0 .808-2.654v-3.481a8.476 8.476 0 0 0-.481-2.115 5.684 5.684 0 0 0-.942-1.712 3.97 3.97 0 0 0-1.481-1.154c-.577-.282-1.263-.423-2.058-.423-.846 0-1.564.18-2.154.538s-1.077.853-1.462 1.481c-.372.628-.647 1.359-.827 2.192s-.269 1.724-.269 2.673z"/>
    </symbol>
    <symbol id="icon-email-black-18dp" viewBox="0 0 24 32">
      <path fill="#2e2f42" style="fill:var(--color1, #2e2f42)" d="M20 8H4c-1.1 0-1.99.9-1.99 2L2 22c0 1.1.9 2 2 2h16c1.1 0 2-.9 2-2V10c0-1.1-.9-2-2-2zm-.4 4.25-7.07 4.42c-.32.2-.74.2-1.06 0L4.4 12.25a.85.85 0 1 1 .9-1.44L12 15l6.7-4.19a.85.85 0 1 1 .9 1.44z"/>
    </symbol>
    <symbol id="icon-phone-black-18dp" viewBox="0 0 24 32">
      <path fill="#2e2f42" style="fill:var(--color1, #2e2f42)" d="m19.635 18.487-2.451-.28a1.92 1.92 0 0 0-1.582.55l-1.775 1.775a14.514 14.514 0 0 1-6.359-6.359l1.785-1.785c.415-.415.618-.994.55-1.582l-.28-2.432a1.931 1.931 0 0 0-1.92-1.708H5.934c-1.09 0-1.997.907-1.93 1.997.511 8.24 7.102 14.821 15.332 15.332 1.09.068 1.997-.839 1.997-1.93v-1.669a1.913 1.913 0 0 0-1.698-1.911z"/>
    </symbol>
    <symbol id="icon-Frame" viewBox="0 0 32 32">
      <path fill="#2e2f42" style="fill:var(--color1, #2e2f42)" d="M12 16c2.21 0 4-1.79 4-4s-1.79-4-4-4-4 1.79-4 4 1.79 4 4 4zm0 2c-2.67 0-8 1.34-8 4v1c0 .55.45 1 1 1h14c.55 0 1-.45 1-1v-1c0-2.66-5.33-4-8-4z"/>
      <path fill="none" stroke="#2e2f42" style="stroke:var(--color1, #2e2f42)" stroke-linecap="round" stroke-width="1.667" d="M30.167 4.833v22.333"/>
    </symbol>
  </defs>
</svg>
